<svg width="14" height="14" viewBox="0 0 14 14" fill="none" xmlns="http://www.w3.org/2000/svg">
<path d="M7.02228 13.9854C7.2209 13.9849 7.41716 13.9423 7.59814 13.8605C7.77912 13.7786 7.94071 13.6594 8.07228 13.5106L13.8117 6.9895C13.9496 6.82105 14.0167 6.60565 13.9989 6.38868C13.9811 6.17172 13.8797 5.97015 13.7162 5.82644C13.5527 5.68274 13.3398 5.60813 13.1223 5.61834C12.9049 5.62854 12.6999 5.72277 12.5505 5.88117L8.11719 10.9194C8.09759 10.9415 8.07174 10.9571 8.04306 10.9642C8.01438 10.9713 7.98423 10.9695 7.9566 10.9591C7.92896 10.9486 7.90515 10.93 7.8883 10.9058C7.87146 10.8815 7.86239 10.8527 7.86228 10.8232L7.86228 0.84C7.86228 0.617218 7.77378 0.403561 7.61625 0.24603C7.45872 0.0884995 7.24506 -2.95343e-07 7.02228 -3.05081e-07C6.7995 -3.14819e-07 6.58584 0.0884994 6.42831 0.24603C6.27078 0.403561 6.18228 0.617218 6.18228 0.84L6.18228 10.8214C6.18199 10.8509 6.17279 10.8797 6.15587 10.9039C6.13895 10.9281 6.11511 10.9466 6.08748 10.957C6.05985 10.9674 6.02972 10.9692 6.00104 10.9622C5.97236 10.9552 5.94647 10.9397 5.92678 10.9177L1.49344 5.87942C1.42227 5.7913 1.33402 5.71849 1.23399 5.66537C1.13396 5.61224 1.02421 5.57989 0.911358 5.57026C0.798502 5.56064 0.684866 5.57394 0.577282 5.60936C0.469699 5.64478 0.37039 5.70159 0.285327 5.77638C0.200265 5.85117 0.131206 5.94239 0.0823037 6.04456C0.0334022 6.14672 0.00566551 6.25772 0.000764568 6.37088C-0.00413637 6.48404 0.0138986 6.59702 0.0537841 6.70303C0.0936696 6.80904 0.154583 6.90589 0.23286 6.98775L5.97228 13.51C6.10374 13.659 6.2653 13.7784 6.44629 13.8603C6.62728 13.9423 6.8236 13.9849 7.02228 13.9854Z" fill="white"/>
</svg>
